# xmcd
#
# Track frame offsets: 
#        150
#        19082
#        40462
#        65955
#        85160
#        103472
#        122755
#        143835
#        163250
#        185150
#
# Disc length: 2740 seconds
#
# Revision: 0
# Processed by: cddbd v1.5.2PL0 Copyright (c) Steve Scherf et al.
# Submitted via: ExactAudioCopyFreeDBPlugin 1.0
#
DISCID=9a0ab20a
DTITLE=Gary Moore - 1985 - Run For Cover
DYEAR=1985
DGENRE=
TTITLE0=Run For Cover
TTITLE1=Reach For The Sky
TTITLE2=Military Man
TTITLE3=Empty Rooms
TTITLE4=Out Of My System
TTITLE5=Out In The Fields
TTITLE6=Nothing To Loose
TTITLE7=Once In A Lifetime
TTITLE8=All Messed Up
TTITLE9=Listen To Your Heartbeat
EXTD=
EXTT0=
EXTT1=
EXTT2=
EXTT3=
EXTT4=
EXTT5=
EXTT6=
EXTT7=
EXTT8=
EXTT9=
PLAYORDER=
